<svg width="525" height="67" viewBox="0 0 525 67" fill="none" xmlns="http://www.w3.org/2000/svg">
<g clip-path="url(#clip0_12_32)">
<path d="M87.512 48V14.4H102.2C105.848 14.4 109.048 15.104 111.8 16.512C114.552 17.92 116.696 19.872 118.232 22.368C119.768 24.864 120.536 27.808 120.536 31.2C120.536 34.56 119.768 37.504 118.232 40.032C116.696 42.528 114.552 44.48 111.8 45.888C109.048 47.296 105.848 48 102.2 48H87.512ZM93.752 42.72H101.912C104.44 42.72 106.616 42.24 108.44 41.28C110.296 40.32 111.72 38.976 112.712 37.248C113.736 35.52 114.248 33.504 114.248 31.2C114.248 28.864 113.736 26.848 112.712 25.152C111.72 23.424 110.296 22.08 108.44 21.12C106.616 20.16 104.44 19.68 101.912 19.68H93.752V42.72ZM138.64 48.336C135.792 48.336 133.296 47.776 131.152 46.656C129.04 45.504 127.392 43.936 126.208 41.952C125.056 39.968 124.48 37.712 124.48 35.184C124.48 32.624 125.04 30.368 126.16 28.416C127.312 26.432 128.88 24.88 130.864 23.76C132.88 22.64 135.168 22.08 137.728 22.08C140.224 22.08 142.448 22.624 144.4 23.712C146.352 24.8 147.888 26.336 149.008 28.32C150.128 30.304 150.688 32.64 150.688 35.328C150.688 35.584 150.672 35.872 150.64 36.192C150.64 36.512 150.624 36.816 150.592 37.104H129.232V33.12H147.424L145.072 34.368C145.104 32.896 144.8 31.6 144.16 30.48C143.52 29.36 142.64 28.48 141.52 27.84C140.432 27.2 139.168 26.88 137.728 26.88C136.256 26.88 134.96 27.2 133.84 27.84C132.752 28.48 131.888 29.376 131.248 30.528C130.64 31.648 130.336 32.976 130.336 34.512V35.472C130.336 37.008 130.688 38.368 131.392 39.552C132.096 40.736 133.088 41.648 134.368 42.288C135.648 42.928 137.12 43.248 138.784 43.248C140.224 43.248 141.52 43.024 142.672 42.576C143.824 42.128 144.848 41.424 145.744 40.464L148.96 44.16C147.808 45.504 146.352 46.544 144.592 47.28C142.864 47.984 140.88 48.336 138.64 48.336ZM168.5 48.336C165.652 48.336 163.156 47.776 161.012 46.656C158.9 45.504 157.252 43.936 156.068 41.952C154.916 39.968 154.34 37.712 154.34 35.184C154.34 32.624 154.9 30.368 156.02 28.416C157.172 26.432 158.74 24.88 160.724 23.76C162.74 22.64 165.028 22.08 167.588 22.08C170.084 22.08 172.308 22.624 174.26 23.712C176.212 24.8 177.748 26.336 178.868 28.32C179.988 30.304 180.548 32.64 180.548 35.328C180.548 35.584 180.532 35.872 180.5 36.192C180.5 36.512 180.484 36.816 180.452 37.104H159.092V33.12H177.284L174.932 34.368C174.964 32.896 174.66 31.6 174.02 30.48C173.38 29.36 172.5 28.48 171.38 27.84C170.292 27.2 169.028 26.88 167.588 26.88C166.116 26.88 164.82 27.2 163.7 27.84C162.612 28.48 161.748 29.376 161.108 30.528C160.5 31.648 160.196 32.976 160.196 34.512V35.472C160.196 37.008 160.548 38.368 161.252 39.552C161.956 40.736 162.948 41.648 164.228 42.288C165.508 42.928 166.98 43.248 168.644 43.248C170.084 43.248 171.38 43.024 172.532 42.576C173.684 42.128 174.708 41.424 175.604 40.464L178.82 44.16C177.668 45.504 176.212 46.544 174.452 47.28C172.724 47.984 170.74 48.336 168.5 48.336ZM200.519 48.336C198.439 48.336 196.535 47.856 194.807 46.896C193.111 45.936 191.751 44.496 190.727 42.576C189.735 40.624 189.239 38.16 189.239 35.184C189.239 32.176 189.719 29.712 190.679 27.792C191.671 25.872 193.015 24.448 194.711 23.52C196.407 22.56 198.343 22.08 200.519 22.08C203.047 22.08 205.271 22.624 207.191 23.712C209.143 24.8 210.679 26.32 211.799 28.272C212.951 30.224 213.527 32.528 213.527 35.184C213.527 37.84 212.951 40.16 211.799 42.144C210.679 44.096 209.143 45.616 207.191 46.704C205.271 47.792 203.047 48.336 200.519 48.336ZM186.311 57.312V22.368H192.023V28.416L191.831 35.232L192.311 42.048V57.312H186.311ZM199.847 43.2C201.287 43.2 202.567 42.88 203.687 42.24C204.839 41.6 205.751 40.672 206.423 39.456C207.095 38.24 207.431 36.816 207.431 35.184C207.431 33.52 207.095 32.096 206.423 30.912C205.751 29.696 204.839 28.768 203.687 28.128C202.567 27.488 201.287 27.168 199.847 27.168C198.407 27.168 197.111 27.488 195.959 28.128C194.807 28.768 193.895 29.696 193.223 30.912C192.551 32.096 192.215 33.52 192.215 35.184C192.215 36.816 192.551 38.24 193.223 39.456C193.895 40.672 194.807 41.6 195.959 42.24C197.111 42.88 198.407 43.2 199.847 43.2ZM219.793 48V14.4H234.481C238.129 14.4 241.329 15.104 244.081 16.512C246.833 17.92 248.977 19.872 250.513 22.368C252.049 24.864 252.817 27.808 252.817 31.2C252.817 34.56 252.049 37.504 250.513 40.032C248.977 42.528 246.833 44.48 244.081 45.888C241.329 47.296 238.129 48 234.481 48H219.793ZM226.033 42.72H234.193C236.721 42.72 238.897 42.24 240.721 41.28C242.577 40.32 244.001 38.976 244.993 37.248C246.017 35.52 246.529 33.504 246.529 31.2C246.529 28.864 246.017 26.848 244.993 25.152C244.001 23.424 242.577 22.08 240.721 21.12C238.897 20.16 236.721 19.68 234.193 19.68H226.033V42.72ZM258.874 48V22.368H264.874V48H258.874ZM261.898 18.144C260.778 18.144 259.85 17.792 259.114 17.088C258.41 16.384 258.058 15.536 258.058 14.544C258.058 13.52 258.41 12.672 259.114 12C259.85 11.296 260.778 10.944 261.898 10.944C263.018 10.944 263.93 11.28 264.634 11.952C265.37 12.592 265.738 13.408 265.738 14.4C265.738 15.456 265.386 16.352 264.682 17.088C263.978 17.792 263.05 18.144 261.898 18.144ZM279.565 48L268.572 22.368H274.812L284.269 44.976H281.197L290.989 22.368H296.749L285.757 48H279.565ZM311.843 48.336C308.995 48.336 306.499 47.776 304.355 46.656C302.243 45.504 300.595 43.936 299.411 41.952C298.259 39.968 297.683 37.712 297.683 35.184C297.683 32.624 298.243 30.368 299.363 28.416C300.515 26.432 302.083 24.88 304.067 23.76C306.083 22.64 308.371 22.08 310.931 22.08C313.427 22.08 315.651 22.624 317.603 23.712C319.555 24.8 321.091 26.336 322.211 28.32C323.331 30.304 323.891 32.64 323.891 35.328C323.891 35.584 323.875 35.872 323.843 36.192C323.843 36.512 323.827 36.816 323.795 37.104H302.435V33.12H320.627L318.275 34.368C318.307 32.896 318.003 31.6 317.363 30.48C316.723 29.36 315.843 28.48 314.723 27.84C313.635 27.2 312.371 26.88 310.931 26.88C309.459 26.88 308.163 27.2 307.043 27.84C305.955 28.48 305.091 29.376 304.451 30.528C303.843 31.648 303.539 32.976 303.539 34.512V35.472C303.539 37.008 303.891 38.368 304.595 39.552C305.299 40.736 306.291 41.648 307.571 42.288C308.851 42.928 310.323 43.248 311.987 43.248C313.427 43.248 314.723 43.024 315.875 42.576C317.027 42.128 318.051 41.424 318.947 40.464L322.163 44.16C321.011 45.504 319.555 46.544 317.795 47.28C316.067 47.984 314.083 48.336 311.843 48.336ZM353.912 48.48C351.288 48.48 348.776 48.112 346.376 47.376C343.976 46.608 342.072 45.632 340.664 44.448L342.824 39.6C344.168 40.656 345.832 41.536 347.816 42.24C349.8 42.944 351.832 43.296 353.912 43.296C355.672 43.296 357.096 43.104 358.184 42.72C359.272 42.336 360.072 41.824 360.584 41.184C361.096 40.512 361.352 39.76 361.352 38.928C361.352 37.904 360.984 37.088 360.248 36.48C359.512 35.84 358.552 35.344 357.368 34.992C356.216 34.608 354.92 34.256 353.48 33.936C352.072 33.616 350.648 33.248 349.208 32.832C347.8 32.384 346.504 31.824 345.32 31.152C344.168 30.448 343.224 29.52 342.488 28.368C341.752 27.216 341.384 25.744 341.384 23.952C341.384 22.128 341.864 20.464 342.824 18.96C343.816 17.424 345.304 16.208 347.288 15.312C349.304 14.384 351.848 13.92 354.92 13.92C356.936 13.92 358.936 14.176 360.92 14.688C362.904 15.2 364.632 15.936 366.104 16.896L364.136 21.744C362.632 20.848 361.08 20.192 359.48 19.776C357.88 19.328 356.344 19.104 354.872 19.104C353.144 19.104 351.736 19.312 350.648 19.728C349.592 20.144 348.808 20.688 348.296 21.36C347.816 22.032 347.576 22.8 347.576 23.664C347.576 24.688 347.928 25.52 348.632 26.16C349.368 26.768 350.312 27.248 351.464 27.6C352.648 27.952 353.96 28.304 355.4 28.656C356.84 28.976 358.264 29.344 359.672 29.76C361.112 30.176 362.408 30.72 363.56 31.392C364.744 32.064 365.688 32.976 366.392 34.128C367.128 35.28 367.496 36.736 367.496 38.496C367.496 40.288 367 41.952 366.008 43.488C365.048 44.992 363.56 46.208 361.544 47.136C359.528 48.032 356.984 48.48 353.912 48.48ZM382.756 48.336C379.94 48.336 377.764 47.616 376.228 46.176C374.692 44.704 373.924 42.544 373.924 39.696V16.704H379.924V39.552C379.924 40.768 380.228 41.712 380.836 42.384C381.476 43.056 382.356 43.392 383.476 43.392C384.82 43.392 385.94 43.04 386.836 42.336L388.516 46.608C387.812 47.184 386.948 47.616 385.924 47.904C384.9 48.192 383.844 48.336 382.756 48.336ZM369.7 27.36V22.56H386.788V27.36H369.7ZM404.3 48.336C402.124 48.336 400.204 47.936 398.54 47.136C396.876 46.304 395.58 45.056 394.652 43.392C393.724 41.696 393.26 39.568 393.26 37.008V22.368H399.26V36.192C399.26 38.496 399.772 40.224 400.796 41.376C401.852 42.496 403.34 43.056 405.26 43.056C406.668 43.056 407.884 42.768 408.908 42.192C409.964 41.616 410.78 40.752 411.356 39.6C411.964 38.448 412.268 37.024 412.268 35.328V22.368H418.268V48H412.556V41.088L413.564 43.2C412.7 44.864 411.436 46.144 409.772 47.04C408.108 47.904 406.284 48.336 404.3 48.336ZM436.972 48.336C434.508 48.336 432.284 47.792 430.3 46.704C428.348 45.584 426.812 44.048 425.692 42.096C424.572 40.144 424.012 37.84 424.012 35.184C424.012 32.528 424.572 30.224 425.692 28.272C426.812 26.32 428.348 24.8 430.3 23.712C432.284 22.624 434.508 22.08 436.972 22.08C439.116 22.08 441.036 22.56 442.732 23.52C444.428 24.448 445.772 25.872 446.764 27.792C447.756 29.712 448.252 32.176 448.252 35.184C448.252 38.16 447.772 40.624 446.812 42.576C445.852 44.496 444.524 45.936 442.828 46.896C441.132 47.856 439.18 48.336 436.972 48.336ZM437.692 43.2C439.132 43.2 440.412 42.88 441.532 42.24C442.684 41.6 443.596 40.672 444.268 39.456C444.972 38.24 445.324 36.816 445.324 35.184C445.324 33.52 444.972 32.096 444.268 30.912C443.596 29.696 442.684 28.768 441.532 28.128C440.412 27.488 439.132 27.168 437.692 27.168C436.252 27.168 434.956 27.488 433.804 28.128C432.684 28.768 431.772 29.696 431.068 30.912C430.396 32.096 430.06 33.52 430.06 35.184C430.06 36.816 430.396 38.24 431.068 39.456C431.772 40.672 432.684 41.6 433.804 42.24C434.956 42.88 436.252 43.2 437.692 43.2ZM445.468 48V41.952L445.708 35.136L445.228 28.32V12.384H451.18V48H445.468ZM459.077 48V22.368H465.077V48H459.077ZM462.101 18.144C460.981 18.144 460.053 17.792 459.317 17.088C458.613 16.384 458.261 15.536 458.261 14.544C458.261 13.52 458.613 12.672 459.317 12C460.053 11.296 460.981 10.944 462.101 10.944C463.221 10.944 464.133 11.28 464.837 11.952C465.573 12.592 465.941 13.408 465.941 14.4C465.941 15.456 465.589 16.352 464.885 17.088C464.181 17.792 463.253 18.144 462.101 18.144ZM484.472 48.336C481.848 48.336 479.512 47.776 477.464 46.656C475.416 45.504 473.8 43.936 472.616 41.952C471.432 39.968 470.84 37.712 470.84 35.184C470.84 32.624 471.432 30.368 472.616 28.416C473.8 26.432 475.416 24.88 477.464 23.76C479.512 22.64 481.848 22.08 484.472 22.08C487.128 22.08 489.48 22.64 491.528 23.76C493.608 24.88 495.224 26.416 496.376 28.368C497.56 30.32 498.152 32.592 498.152 35.184C498.152 37.712 497.56 39.968 496.376 41.952C495.224 43.936 493.608 45.504 491.528 46.656C489.48 47.776 487.128 48.336 484.472 48.336ZM484.472 43.2C485.944 43.2 487.256 42.88 488.408 42.24C489.56 41.6 490.456 40.672 491.096 39.456C491.768 38.24 492.104 36.816 492.104 35.184C492.104 33.52 491.768 32.096 491.096 30.912C490.456 29.696 489.56 28.768 488.408 28.128C487.256 27.488 485.96 27.168 484.52 27.168C483.048 27.168 481.736 27.488 480.584 28.128C479.464 28.768 478.568 29.696 477.896 30.912C477.224 32.096 476.888 33.52 476.888 35.184C476.888 36.816 477.224 38.24 477.896 39.456C478.568 40.672 479.464 41.6 480.584 42.24C481.736 42.88 483.032 43.2 484.472 43.2ZM511.809 48.336C509.665 48.336 507.601 48.064 505.617 47.52C503.665 46.944 502.113 46.256 500.961 45.456L503.265 40.896C504.417 41.632 505.793 42.24 507.393 42.72C508.993 43.2 510.593 43.44 512.193 43.44C514.081 43.44 515.441 43.184 516.273 42.672C517.137 42.16 517.569 41.472 517.569 40.608C517.569 39.904 517.281 39.376 516.705 39.024C516.129 38.64 515.377 38.352 514.449 38.16C513.521 37.968 512.481 37.792 511.329 37.632C510.209 37.472 509.073 37.264 507.921 37.008C506.801 36.72 505.777 36.32 504.849 35.808C503.921 35.264 503.169 34.544 502.593 33.648C502.017 32.752 501.729 31.568 501.729 30.096C501.729 28.464 502.193 27.056 503.121 25.872C504.049 24.656 505.345 23.728 507.009 23.088C508.705 22.416 510.705 22.08 513.009 22.08C514.737 22.08 516.481 22.272 518.241 22.656C520.001 23.04 521.457 23.584 522.609 24.288L520.305 28.848C519.089 28.112 517.857 27.616 516.609 27.36C515.393 27.072 514.177 26.928 512.961 26.928C511.137 26.928 509.777 27.2 508.881 27.744C508.017 28.288 507.585 28.976 507.585 29.808C507.585 30.576 507.873 31.152 508.449 31.536C509.025 31.92 509.777 32.224 510.705 32.448C511.633 32.672 512.657 32.864 513.777 33.024C514.929 33.152 516.065 33.36 517.185 33.648C518.305 33.936 519.329 34.336 520.257 34.848C521.217 35.328 521.985 36.016 522.561 36.912C523.137 37.808 523.425 38.976 523.425 40.416C523.425 42.016 522.945 43.408 521.985 44.592C521.057 45.776 519.729 46.704 518.001 47.376C516.273 48.016 514.209 48.336 511.809 48.336Z" fill="black"/>
<g clip-path="url(#clip1_12_32)">
<mask id="mask0_12_32" style="mask-type:luminance" maskUnits="userSpaceOnUse" x="0" y="0" width="67" height="67">
<path d="M67 0H0V67H67V0Z" fill="white"/>
</mask>
<g mask="url(#mask0_12_32)">
<path d="M57.1175 14.1035C56.9835 14.3715 56.9835 14.5725 57.1175 14.7065C57.2515 14.8405 57.2515 14.9745 57.1175 15.1085C56.9165 15.2425 56.548 15.343 56.012 15.41C55.543 15.41 55.141 15.4435 54.806 15.5105C54.337 15.6445 53.868 15.7115 53.399 15.7115C52.93 15.6445 52.4275 15.4435 51.8915 15.1085C51.0875 14.7065 50.0825 14.338 48.8765 14.003C47.7375 13.601 46.498 13.4 45.158 13.4C43.416 13.4 41.5735 13.601 39.6305 14.003C37.6875 14.338 35.8115 14.8405 34.0025 15.5105C32.2605 16.1135 30.686 16.884 29.279 17.822C27.939 18.76 26.9675 19.7985 26.3645 20.9375C25.9625 21.8085 25.795 22.7465 25.862 23.7515C25.929 24.6895 26.1635 25.594 26.5655 26.465C26.9675 27.336 27.4365 28.14 27.9725 28.877C28.5755 29.547 29.145 30.016 29.681 30.284C31.356 31.155 33.1985 31.7245 35.2085 31.9925C37.2855 32.2605 39.396 32.428 41.54 32.495C43.751 32.562 45.9285 32.6625 48.0725 32.7965C50.2165 32.9305 52.193 33.2655 54.002 33.8015C54.94 34.1365 55.811 34.4045 56.615 34.6055C57.486 34.8065 58.2565 35.108 58.9265 35.51C59.5965 35.845 60.1995 36.3475 60.7355 37.0175C61.3385 37.6205 61.841 38.525 62.243 39.731C62.846 42.277 62.712 44.756 61.841 47.168C60.97 49.647 59.5295 51.8245 57.5195 53.7005C55.5095 55.6435 53.2315 57.1845 50.6855 58.3235C48.6755 59.1945 46.5985 59.764 44.4545 60.032C42.3775 60.367 40.334 60.3335 38.324 59.9315C36.381 59.5295 34.572 58.759 32.897 57.62C31.289 56.481 29.9825 54.9065 28.9775 52.8965C28.3745 51.6235 28.073 50.0825 28.073 48.2735C28.006 48.0725 28.006 47.8715 28.073 47.6705C28.207 47.2015 28.6425 46.967 29.3795 46.967C29.6475 46.833 29.9825 46.9335 30.3845 47.2685C30.8535 47.5365 31.1885 47.704 31.3895 47.771C31.9255 47.838 32.428 48.2065 32.897 48.8765C33.433 49.4795 33.9355 49.982 34.4045 50.384C36.0795 52.126 37.9555 53.198 40.0325 53.6C42.1765 53.935 44.22 53.935 46.163 53.6C48.173 53.198 50.0155 52.595 51.6905 51.791C53.3655 50.987 54.605 50.25 55.409 49.58C55.878 49.178 56.3805 48.709 56.9165 48.173C57.5195 47.57 58.089 46.9335 58.625 46.2635C59.161 45.5265 59.5965 44.756 59.9315 43.952C60.3335 43.148 60.5345 42.3105 60.5345 41.4395C60.3335 40.6355 59.7975 40.0325 58.9265 39.6305C58.0555 39.1615 56.95 38.793 55.61 38.525C53.265 38.123 50.9535 37.922 48.6755 37.922C46.3975 37.8549 44.153 37.8549 41.942 37.922C39.731 37.989 37.5535 38.0225 35.4095 38.0225C33.2655 38.0225 31.1885 37.788 29.1785 37.319C28.5755 37.185 27.9725 36.984 27.3695 36.716C26.8335 36.381 26.2975 36.046 25.7615 35.711C25.2255 35.376 24.8235 34.9405 24.5555 34.4045C24.2875 33.8685 23.986 33.299 23.651 32.696C23.316 32.093 22.981 31.49 22.646 30.887C22.378 30.217 22.177 29.5135 22.043 28.7765C21.708 26.6325 21.708 24.4215 22.043 22.1435C22.445 19.8655 23.316 17.755 24.656 15.812C25.728 14.204 27.1685 12.8305 28.9775 11.6915C30.8535 10.4855 32.9305 9.58095 35.2085 8.97795C37.5535 8.30795 40.0325 8.00645 42.6455 8.07345C45.2585 8.07345 47.9385 8.47545 50.6855 9.27945C51.0205 9.41345 51.4225 9.61445 51.8915 9.88245C52.3605 10.0835 52.7625 10.251 53.0975 10.385C54.0355 10.854 54.873 11.4235 55.61 12.0935C56.347 12.7635 56.8495 13.4335 57.1175 14.1035Z" fill="#FFA948"/>
<path d="M43.0475 12.1102C44.0638 13.1264 44.9235 14.338 45.627 15.745C46.3305 17.152 46.8778 18.6762 47.2685 20.3177C47.6593 21.9592 47.8158 23.6397 47.7375 25.3595C47.7375 27.001 47.503 28.5642 47.034 30.0495C45.0018 42.009 39.022 51.9752 29.0948 59.9482C28.0005 60.7299 26.9453 61.1989 25.929 61.3552C24.9128 61.5897 23.9358 62.0197 22.9978 62.645C22.3725 63.0357 21.7471 63.3484 21.1218 63.583C20.5746 63.8175 19.9103 63.9347 19.1285 63.9347C18.9723 63.5439 18.9331 63.1922 19.0113 62.8795C19.0895 62.5667 19.2068 62.215 19.363 61.8242C19.4413 61.5115 19.4413 61.1207 19.363 60.6517C19.363 60.2609 19.4413 59.9092 19.5975 59.5965C19.9103 59.0492 20.1838 58.5412 20.4183 58.0722C20.731 57.6032 20.9263 57.1732 21.0045 56.7825C21.0045 56.3917 20.731 56.0007 20.1838 55.61C19.7148 55.141 19.363 54.5937 19.1285 53.9685C18.1123 51.4672 17.2525 48.6532 16.549 45.5265C15.8455 42.3217 15.2202 39.0387 14.673 35.6775C14.204 32.2382 13.7741 28.8379 13.3833 25.4767C13.0706 22.0374 12.797 18.8325 12.5625 15.8622L9.74854 17.0347C9.35772 17.191 9.08412 16.9175 8.92779 16.214C8.77146 15.5105 8.77146 14.846 8.92779 14.2207L9.51404 11.993C9.67037 11.6021 9.74854 11.1722 9.74854 10.7032C9.74854 10.156 9.98304 9.68703 10.452 9.2962C11.2337 8.67087 12.3671 7.96737 13.8523 7.1857C15.4156 6.40403 17.1743 6.05228 19.1285 6.13045C21.0828 5.11428 23.1541 4.48895 25.3428 4.25445C27.5315 4.01995 29.681 4.17628 31.7915 4.72345C33.902 5.19245 35.9343 6.05228 37.8885 7.30295C39.8428 8.55362 41.5623 10.156 43.0475 12.1102ZM43.0475 18.09C42.0313 15.5886 40.429 13.8299 38.2403 12.8137C36.1298 11.7194 33.8238 11.094 31.3225 10.9377C28.8993 10.7814 26.5543 10.9768 24.2875 11.524C22.0208 12.0711 20.301 12.7355 19.1285 13.5172C19.363 16.0967 19.5975 18.9889 19.832 22.1937C20.1448 25.3985 20.4965 28.7207 20.8873 32.16C21.3563 35.5212 21.9035 38.9214 22.5288 42.3607C23.2323 45.8 24.0921 49.0049 25.1083 51.9752C28.0786 50.021 30.7753 47.8324 33.1985 45.4092C35.6218 42.9079 37.654 40.2502 39.2955 37.4362C40.937 34.544 42.0705 31.4955 42.6958 28.2907C43.3993 25.0077 43.5165 21.6075 43.0475 18.09Z" fill="#FFA948"/>
</g>
</g>
</g>
<defs>
<clipPath id="clip0_12_32">
<rect width="525" height="67" fill="white"/>
</clipPath>
<clipPath id="clip1_12_32">
<rect width="67" height="67" fill="white"/>
</clipPath>
</defs>
</svg>
