<svg width="67" height="67" viewBox="0 0 67 67" fill="none" xmlns="http://www.w3.org/2000/svg">
<g clip-path="url(#clip0_18_320)">
<mask id="mask0_18_320" style="mask-type:luminance" maskUnits="userSpaceOnUse" x="0" y="0" width="67" height="67">
<path d="M67 0H0V67H67V0Z" fill="white"/>
</mask>
<g mask="url(#mask0_18_320)">
<path d="M57.1175 14.1035C56.9835 14.3715 56.9835 14.5725 57.1175 14.7065C57.2515 14.8405 57.2515 14.9745 57.1175 15.1085C56.9165 15.2425 56.548 15.343 56.012 15.41C55.543 15.41 55.141 15.4435 54.806 15.5105C54.337 15.6445 53.868 15.7115 53.399 15.7115C52.93 15.6445 52.4275 15.4435 51.8915 15.1085C51.0875 14.7065 50.0825 14.338 48.8765 14.003C47.7375 13.601 46.498 13.4 45.158 13.4C43.416 13.4 41.5735 13.601 39.6305 14.003C37.6875 14.338 35.8115 14.8405 34.0025 15.5105C32.2605 16.1135 30.686 16.884 29.279 17.822C27.939 18.76 26.9675 19.7985 26.3645 20.9375C25.9625 21.8085 25.795 22.7465 25.862 23.7515C25.929 24.6895 26.1635 25.594 26.5655 26.465C26.9675 27.336 27.4365 28.14 27.9725 28.877C28.5755 29.547 29.145 30.016 29.681 30.284C31.356 31.155 33.1985 31.7245 35.2085 31.9925C37.2855 32.2605 39.396 32.428 41.54 32.495C43.751 32.562 45.9285 32.6625 48.0725 32.7965C50.2165 32.9305 52.193 33.2655 54.002 33.8015C54.94 34.1365 55.811 34.4045 56.615 34.6055C57.486 34.8065 58.2565 35.108 58.9265 35.51C59.5965 35.845 60.1995 36.3475 60.7355 37.0175C61.3385 37.6205 61.841 38.525 62.243 39.731C62.846 42.277 62.712 44.756 61.841 47.168C60.97 49.647 59.5295 51.8245 57.5195 53.7005C55.5095 55.6435 53.2315 57.1845 50.6855 58.3235C48.6755 59.1945 46.5985 59.764 44.4545 60.032C42.3775 60.367 40.334 60.3335 38.324 59.9315C36.381 59.5295 34.572 58.759 32.897 57.62C31.289 56.481 29.9825 54.9065 28.9775 52.8965C28.3745 51.6235 28.073 50.0825 28.073 48.2735C28.006 48.0725 28.006 47.8715 28.073 47.6705C28.207 47.2015 28.6425 46.967 29.3795 46.967C29.6475 46.833 29.9825 46.9335 30.3845 47.2685C30.8535 47.5365 31.1885 47.704 31.3895 47.771C31.9255 47.838 32.428 48.2065 32.897 48.8765C33.433 49.4795 33.9355 49.982 34.4045 50.384C36.0795 52.126 37.9555 53.198 40.0325 53.6C42.1765 53.935 44.22 53.935 46.163 53.6C48.173 53.198 50.0155 52.595 51.6905 51.791C53.3655 50.987 54.605 50.25 55.409 49.58C55.878 49.178 56.3805 48.709 56.9165 48.173C57.5195 47.57 58.089 46.9335 58.625 46.2635C59.161 45.5265 59.5965 44.756 59.9315 43.952C60.3335 43.148 60.5345 42.3105 60.5345 41.4395C60.3335 40.6355 59.7975 40.0325 58.9265 39.6305C58.0555 39.1615 56.95 38.793 55.61 38.525C53.265 38.123 50.9535 37.922 48.6755 37.922C46.3975 37.8549 44.153 37.8549 41.942 37.922C39.731 37.989 37.5535 38.0225 35.4095 38.0225C33.2655 38.0225 31.1885 37.788 29.1785 37.319C28.5755 37.185 27.9725 36.984 27.3695 36.716C26.8335 36.381 26.2975 36.046 25.7615 35.711C25.2255 35.376 24.8235 34.9405 24.5555 34.4045C24.2875 33.8685 23.986 33.299 23.651 32.696C23.316 32.093 22.981 31.49 22.646 30.887C22.378 30.217 22.177 29.5135 22.043 28.7765C21.708 26.6325 21.708 24.4215 22.043 22.1435C22.445 19.8655 23.316 17.755 24.656 15.812C25.728 14.204 27.1685 12.8305 28.9775 11.6915C30.8535 10.4855 32.9305 9.58095 35.2085 8.97795C37.5535 8.30795 40.0325 8.00645 42.6455 8.07345C45.2585 8.07345 47.9385 8.47545 50.6855 9.27945C51.0205 9.41345 51.4225 9.61445 51.8915 9.88245C52.3605 10.0835 52.7625 10.251 53.0975 10.385C54.0355 10.854 54.873 11.4235 55.61 12.0935C56.347 12.7635 56.8495 13.4335 57.1175 14.1035Z" fill="#FFA948"/>
<path d="M43.0475 12.1102C44.0638 13.1264 44.9235 14.338 45.627 15.745C46.3305 17.152 46.8778 18.6762 47.2685 20.3177C47.6593 21.9592 47.8158 23.6397 47.7375 25.3595C47.7375 27.001 47.503 28.5642 47.034 30.0495C45.0018 42.009 39.022 51.9752 29.0948 59.9482C28.0005 60.7299 26.9453 61.1989 25.929 61.3552C24.9128 61.5897 23.9358 62.0197 22.9978 62.645C22.3725 63.0357 21.7471 63.3484 21.1218 63.583C20.5746 63.8175 19.9103 63.9347 19.1285 63.9347C18.9723 63.5439 18.9331 63.1922 19.0113 62.8795C19.0895 62.5667 19.2068 62.215 19.363 61.8242C19.4413 61.5115 19.4413 61.1207 19.363 60.6517C19.363 60.2609 19.4413 59.9092 19.5975 59.5965C19.9103 59.0492 20.1838 58.5412 20.4183 58.0722C20.731 57.6032 20.9263 57.1732 21.0045 56.7825C21.0045 56.3917 20.731 56.0007 20.1838 55.61C19.7148 55.141 19.363 54.5937 19.1285 53.9685C18.1123 51.4672 17.2525 48.6532 16.549 45.5265C15.8455 42.3217 15.2202 39.0387 14.673 35.6775C14.204 32.2382 13.7741 28.8379 13.3833 25.4767C13.0706 22.0374 12.797 18.8325 12.5625 15.8622L9.74854 17.0347C9.35772 17.191 9.08412 16.9175 8.92779 16.214C8.77146 15.5105 8.77146 14.846 8.92779 14.2207L9.51404 11.993C9.67037 11.6021 9.74854 11.1722 9.74854 10.7032C9.74854 10.156 9.98304 9.68703 10.452 9.2962C11.2337 8.67087 12.3671 7.96737 13.8523 7.1857C15.4156 6.40403 17.1743 6.05228 19.1285 6.13045C21.0828 5.11428 23.1541 4.48895 25.3428 4.25445C27.5315 4.01995 29.681 4.17628 31.7915 4.72345C33.902 5.19245 35.9343 6.05228 37.8885 7.30295C39.8428 8.55362 41.5623 10.156 43.0475 12.1102ZM43.0475 18.09C42.0313 15.5886 40.429 13.8299 38.2403 12.8137C36.1298 11.7194 33.8238 11.094 31.3225 10.9377C28.8993 10.7814 26.5543 10.9768 24.2875 11.524C22.0208 12.0711 20.301 12.7355 19.1285 13.5172C19.363 16.0967 19.5975 18.9889 19.832 22.1937C20.1448 25.3985 20.4965 28.7207 20.8873 32.16C21.3563 35.5212 21.9035 38.9214 22.5288 42.3607C23.2323 45.8 24.0921 49.0049 25.1083 51.9752C28.0786 50.021 30.7753 47.8324 33.1985 45.4092C35.6218 42.9079 37.654 40.2502 39.2955 37.4362C40.937 34.544 42.0705 31.4955 42.6958 28.2907C43.3993 25.0077 43.5165 21.6075 43.0475 18.09Z" fill="#FFA948"/>
</g>
</g>
<defs>
<clipPath id="clip0_18_320">
<rect width="67" height="67" fill="white"/>
</clipPath>
</defs>
</svg>
